<mxfile host="app.diagrams.net" modified="2023-07-12T03:15:28.231Z" agent="Mozilla/5.0 (Windows NT 10.0; Win64; x64) AppleWebKit/537.36 (KHTML, like Gecko) Chrome/114.0.0.0 Safari/537.36" etag="d8KpKsMNUFIJYcqcUFTb" version="21.6.2" type="device" pages="7">
  <diagram name="第 1 页" id="UG6ZB2gDMQEPw43_Knts">
    <mxGraphModel dx="1221" dy="636" grid="0" gridSize="10" guides="1" tooltips="1" connect="1" arrows="1" fold="1" page="0" pageScale="1" pageWidth="827" pageHeight="1169" math="0" shadow="0">
      <root>
        <mxCell id="0" />
        <mxCell id="1" parent="0" />
        <mxCell id="QQIUApnlefJT748vlMqK-3" style="edgeStyle=orthogonalEdgeStyle;rounded=0;orthogonalLoop=1;jettySize=auto;html=1;entryX=0;entryY=0.5;entryDx=0;entryDy=0;entryPerimeter=0;fontSize=14;fillColor=#050505;strokeWidth=4;" parent="1" source="QQIUApnlefJT748vlMqK-1" target="QQIUApnlefJT748vlMqK-2" edge="1">
          <mxGeometry relative="1" as="geometry" />
        </mxCell>
        <mxCell id="QQIUApnlefJT748vlMqK-1" value="Source.java" style="whiteSpace=wrap;html=1;shape=mxgraph.basic.document;fontSize=14;" parent="1" vertex="1">
          <mxGeometry x="120" y="160" width="100" height="100" as="geometry" />
        </mxCell>
        <mxCell id="QQIUApnlefJT748vlMqK-13" style="edgeStyle=orthogonalEdgeStyle;rounded=0;orthogonalLoop=1;jettySize=auto;html=1;entryX=0;entryY=0.75;entryDx=0;entryDy=0;strokeWidth=3;fontSize=14;fillColor=#050505;" parent="1" source="QQIUApnlefJT748vlMqK-2" target="QQIUApnlefJT748vlMqK-9" edge="1">
          <mxGeometry relative="1" as="geometry">
            <Array as="points">
              <mxPoint x="448" y="210" />
              <mxPoint x="448" y="120" />
              <mxPoint x="496" y="120" />
            </Array>
          </mxGeometry>
        </mxCell>
        <mxCell id="QQIUApnlefJT748vlMqK-14" style="edgeStyle=orthogonalEdgeStyle;rounded=0;orthogonalLoop=1;jettySize=auto;html=1;entryX=0;entryY=0.5;entryDx=0;entryDy=0;strokeWidth=3;fontSize=14;fillColor=#050505;" parent="1" source="QQIUApnlefJT748vlMqK-2" target="QQIUApnlefJT748vlMqK-10" edge="1">
          <mxGeometry relative="1" as="geometry" />
        </mxCell>
        <mxCell id="QQIUApnlefJT748vlMqK-15" style="edgeStyle=orthogonalEdgeStyle;rounded=0;orthogonalLoop=1;jettySize=auto;html=1;entryX=0;entryY=0.5;entryDx=0;entryDy=0;strokeWidth=3;fontSize=14;fillColor=#050505;" parent="1" source="QQIUApnlefJT748vlMqK-2" target="QQIUApnlefJT748vlMqK-11" edge="1">
          <mxGeometry relative="1" as="geometry" />
        </mxCell>
        <mxCell id="QQIUApnlefJT748vlMqK-16" style="edgeStyle=orthogonalEdgeStyle;rounded=0;orthogonalLoop=1;jettySize=auto;html=1;entryX=0;entryY=0.5;entryDx=0;entryDy=0;strokeWidth=3;fontSize=14;fillColor=#050505;" parent="1" source="QQIUApnlefJT748vlMqK-2" target="QQIUApnlefJT748vlMqK-12" edge="1">
          <mxGeometry relative="1" as="geometry" />
        </mxCell>
        <mxCell id="QQIUApnlefJT748vlMqK-2" value="Source.class" style="whiteSpace=wrap;html=1;shape=mxgraph.basic.document;fontSize=14;" parent="1" vertex="1">
          <mxGeometry x="300" y="160" width="100" height="100" as="geometry" />
        </mxCell>
        <mxCell id="QQIUApnlefJT748vlMqK-4" value="编译" style="text;html=1;strokeColor=none;fillColor=none;align=center;verticalAlign=middle;whiteSpace=wrap;rounded=0;fontSize=14;" parent="1" vertex="1">
          <mxGeometry x="231" y="180" width="60" height="30" as="geometry" />
        </mxCell>
        <mxCell id="QQIUApnlefJT748vlMqK-5" value="javac" style="text;html=1;strokeColor=none;fillColor=none;align=center;verticalAlign=middle;whiteSpace=wrap;rounded=0;fontSize=14;" parent="1" vertex="1">
          <mxGeometry x="231" y="230" width="60" height="30" as="geometry" />
        </mxCell>
        <mxCell id="QQIUApnlefJT748vlMqK-23" value="" style="edgeStyle=orthogonalEdgeStyle;rounded=0;orthogonalLoop=1;jettySize=auto;html=1;strokeWidth=2;fontSize=14;fillColor=#050505;" parent="1" source="QQIUApnlefJT748vlMqK-9" target="QQIUApnlefJT748vlMqK-19" edge="1">
          <mxGeometry relative="1" as="geometry" />
        </mxCell>
        <mxCell id="QQIUApnlefJT748vlMqK-9" value="JVM for Win" style="rounded=1;whiteSpace=wrap;html=1;fontSize=14;strokeWidth=2;" parent="1" vertex="1">
          <mxGeometry x="496" y="100" width="120" height="40" as="geometry" />
        </mxCell>
        <mxCell id="QQIUApnlefJT748vlMqK-24" value="" style="edgeStyle=orthogonalEdgeStyle;rounded=0;orthogonalLoop=1;jettySize=auto;html=1;strokeWidth=2;fontSize=14;fillColor=#050505;" parent="1" source="QQIUApnlefJT748vlMqK-10" target="QQIUApnlefJT748vlMqK-20" edge="1">
          <mxGeometry relative="1" as="geometry" />
        </mxCell>
        <mxCell id="QQIUApnlefJT748vlMqK-10" value="JVM for&amp;nbsp; Linux" style="rounded=1;whiteSpace=wrap;html=1;fontSize=14;strokeWidth=2;" parent="1" vertex="1">
          <mxGeometry x="496" y="160" width="120" height="40" as="geometry" />
        </mxCell>
        <mxCell id="QQIUApnlefJT748vlMqK-25" value="" style="edgeStyle=orthogonalEdgeStyle;rounded=0;orthogonalLoop=1;jettySize=auto;html=1;strokeWidth=2;fontSize=14;fillColor=#050505;" parent="1" source="QQIUApnlefJT748vlMqK-11" target="QQIUApnlefJT748vlMqK-21" edge="1">
          <mxGeometry relative="1" as="geometry" />
        </mxCell>
        <mxCell id="QQIUApnlefJT748vlMqK-11" value="JVM for Unix" style="rounded=1;whiteSpace=wrap;html=1;fontSize=14;strokeWidth=2;" parent="1" vertex="1">
          <mxGeometry x="496" y="220" width="120" height="40" as="geometry" />
        </mxCell>
        <mxCell id="QQIUApnlefJT748vlMqK-26" value="" style="edgeStyle=orthogonalEdgeStyle;rounded=0;orthogonalLoop=1;jettySize=auto;html=1;strokeWidth=2;fontSize=14;fillColor=#050505;" parent="1" source="QQIUApnlefJT748vlMqK-12" target="QQIUApnlefJT748vlMqK-22" edge="1">
          <mxGeometry relative="1" as="geometry" />
        </mxCell>
        <mxCell id="QQIUApnlefJT748vlMqK-12" value="JVM for Mac" style="rounded=1;whiteSpace=wrap;html=1;fontSize=14;strokeWidth=2;" parent="1" vertex="1">
          <mxGeometry x="496" y="280" width="120" height="40" as="geometry" />
        </mxCell>
        <mxCell id="QQIUApnlefJT748vlMqK-17" value="执行" style="text;html=1;strokeColor=none;fillColor=none;align=center;verticalAlign=middle;whiteSpace=wrap;rounded=0;fontSize=14;" parent="1" vertex="1">
          <mxGeometry x="396" y="180" width="60" height="30" as="geometry" />
        </mxCell>
        <mxCell id="QQIUApnlefJT748vlMqK-18" value="java" style="text;html=1;strokeColor=none;fillColor=none;align=center;verticalAlign=middle;whiteSpace=wrap;rounded=0;fontSize=14;" parent="1" vertex="1">
          <mxGeometry x="396" y="230" width="60" height="30" as="geometry" />
        </mxCell>
        <mxCell id="QQIUApnlefJT748vlMqK-19" value="Windows平台" style="rounded=1;whiteSpace=wrap;html=1;fontSize=14;strokeWidth=2;" parent="1" vertex="1">
          <mxGeometry x="660" y="100" width="100" height="40" as="geometry" />
        </mxCell>
        <mxCell id="QQIUApnlefJT748vlMqK-20" value="Linux平台" style="rounded=1;whiteSpace=wrap;html=1;fontSize=14;strokeWidth=2;" parent="1" vertex="1">
          <mxGeometry x="660" y="160" width="100" height="40" as="geometry" />
        </mxCell>
        <mxCell id="QQIUApnlefJT748vlMqK-21" value="Unix平台" style="rounded=1;whiteSpace=wrap;html=1;fontSize=14;strokeWidth=2;" parent="1" vertex="1">
          <mxGeometry x="660" y="220" width="100" height="40" as="geometry" />
        </mxCell>
        <mxCell id="QQIUApnlefJT748vlMqK-22" value="Mac平台" style="rounded=1;whiteSpace=wrap;html=1;fontSize=14;strokeWidth=2;" parent="1" vertex="1">
          <mxGeometry x="660" y="280" width="100" height="40" as="geometry" />
        </mxCell>
      </root>
    </mxGraphModel>
  </diagram>
  <diagram id="qKEa3ySfplhQ4e05WQCN" name="第 2 页">
    <mxGraphModel dx="634" dy="404" grid="0" gridSize="10" guides="1" tooltips="1" connect="1" arrows="1" fold="1" page="0" pageScale="1" pageWidth="827" pageHeight="1169" math="0" shadow="0">
      <root>
        <mxCell id="0" />
        <mxCell id="1" parent="0" />
        <mxCell id="jZMz4Pu9Ux6BbXjy2L9d-125" value="0" style="rounded=0;whiteSpace=wrap;html=1;" vertex="1" parent="1">
          <mxGeometry x="1002" y="463" width="30" height="30" as="geometry" />
        </mxCell>
        <mxCell id="jZMz4Pu9Ux6BbXjy2L9d-126" value="0" style="rounded=0;whiteSpace=wrap;html=1;" vertex="1" parent="1">
          <mxGeometry x="1042" y="463" width="30" height="30" as="geometry" />
        </mxCell>
        <mxCell id="jZMz4Pu9Ux6BbXjy2L9d-127" value="0" style="rounded=0;whiteSpace=wrap;html=1;" vertex="1" parent="1">
          <mxGeometry x="1082" y="463" width="30" height="30" as="geometry" />
        </mxCell>
        <mxCell id="jZMz4Pu9Ux6BbXjy2L9d-128" value="0" style="rounded=0;whiteSpace=wrap;html=1;" vertex="1" parent="1">
          <mxGeometry x="1122" y="463" width="30" height="30" as="geometry" />
        </mxCell>
        <mxCell id="jZMz4Pu9Ux6BbXjy2L9d-129" value="0" style="rounded=0;whiteSpace=wrap;html=1;" vertex="1" parent="1">
          <mxGeometry x="1162" y="463" width="30" height="30" as="geometry" />
        </mxCell>
        <mxCell id="jZMz4Pu9Ux6BbXjy2L9d-130" value="1" style="rounded=0;whiteSpace=wrap;html=1;" vertex="1" parent="1">
          <mxGeometry x="1202" y="463" width="30" height="30" as="geometry" />
        </mxCell>
        <mxCell id="jZMz4Pu9Ux6BbXjy2L9d-131" value="0" style="rounded=0;whiteSpace=wrap;html=1;" vertex="1" parent="1">
          <mxGeometry x="1242" y="463" width="30" height="30" as="geometry" />
        </mxCell>
        <mxCell id="jZMz4Pu9Ux6BbXjy2L9d-132" value="1" style="rounded=0;whiteSpace=wrap;html=1;" vertex="1" parent="1">
          <mxGeometry x="1282" y="463" width="30" height="30" as="geometry" />
        </mxCell>
        <mxCell id="jZMz4Pu9Ux6BbXjy2L9d-157" value="0" style="rounded=0;whiteSpace=wrap;html=1;" vertex="1" parent="1">
          <mxGeometry x="1002" y="525" width="30" height="30" as="geometry" />
        </mxCell>
        <mxCell id="jZMz4Pu9Ux6BbXjy2L9d-158" value="0" style="rounded=0;whiteSpace=wrap;html=1;" vertex="1" parent="1">
          <mxGeometry x="1042" y="525" width="30" height="30" as="geometry" />
        </mxCell>
        <mxCell id="jZMz4Pu9Ux6BbXjy2L9d-159" value="0" style="rounded=0;whiteSpace=wrap;html=1;" vertex="1" parent="1">
          <mxGeometry x="1082" y="525" width="30" height="30" as="geometry" />
        </mxCell>
        <mxCell id="jZMz4Pu9Ux6BbXjy2L9d-160" value="0" style="rounded=0;whiteSpace=wrap;html=1;" vertex="1" parent="1">
          <mxGeometry x="1122" y="525" width="30" height="30" as="geometry" />
        </mxCell>
        <mxCell id="jZMz4Pu9Ux6BbXjy2L9d-161" value="0" style="rounded=0;whiteSpace=wrap;html=1;" vertex="1" parent="1">
          <mxGeometry x="1162" y="525" width="30" height="30" as="geometry" />
        </mxCell>
        <mxCell id="jZMz4Pu9Ux6BbXjy2L9d-162" value="1" style="rounded=0;whiteSpace=wrap;html=1;" vertex="1" parent="1">
          <mxGeometry x="1202" y="525" width="30" height="30" as="geometry" />
        </mxCell>
        <mxCell id="jZMz4Pu9Ux6BbXjy2L9d-163" value="1" style="rounded=0;whiteSpace=wrap;html=1;" vertex="1" parent="1">
          <mxGeometry x="1242" y="525" width="30" height="30" as="geometry" />
        </mxCell>
        <mxCell id="jZMz4Pu9Ux6BbXjy2L9d-164" value="0" style="rounded=0;whiteSpace=wrap;html=1;" vertex="1" parent="1">
          <mxGeometry x="1282" y="525" width="30" height="30" as="geometry" />
        </mxCell>
        <mxCell id="jZMz4Pu9Ux6BbXjy2L9d-165" value="5" style="text;html=1;strokeColor=none;fillColor=none;align=center;verticalAlign=middle;whiteSpace=wrap;rounded=0;" vertex="1" parent="1">
          <mxGeometry x="1335" y="463" width="60" height="30" as="geometry" />
        </mxCell>
        <mxCell id="jZMz4Pu9Ux6BbXjy2L9d-166" value="6" style="text;html=1;strokeColor=none;fillColor=none;align=center;verticalAlign=middle;whiteSpace=wrap;rounded=0;" vertex="1" parent="1">
          <mxGeometry x="1335" y="525" width="60" height="30" as="geometry" />
        </mxCell>
        <mxCell id="jZMz4Pu9Ux6BbXjy2L9d-167" value="" style="endArrow=none;html=1;rounded=0;" edge="1" parent="1">
          <mxGeometry width="50" height="50" relative="1" as="geometry">
            <mxPoint x="980" y="575" as="sourcePoint" />
            <mxPoint x="1348" y="575" as="targetPoint" />
          </mxGeometry>
        </mxCell>
        <mxCell id="jZMz4Pu9Ux6BbXjy2L9d-192" value="0" style="rounded=0;whiteSpace=wrap;html=1;" vertex="1" parent="1">
          <mxGeometry x="1002" y="599" width="30" height="30" as="geometry" />
        </mxCell>
        <mxCell id="jZMz4Pu9Ux6BbXjy2L9d-193" value="0" style="rounded=0;whiteSpace=wrap;html=1;" vertex="1" parent="1">
          <mxGeometry x="1042" y="599" width="30" height="30" as="geometry" />
        </mxCell>
        <mxCell id="jZMz4Pu9Ux6BbXjy2L9d-194" value="0" style="rounded=0;whiteSpace=wrap;html=1;" vertex="1" parent="1">
          <mxGeometry x="1082" y="599" width="30" height="30" as="geometry" />
        </mxCell>
        <mxCell id="jZMz4Pu9Ux6BbXjy2L9d-195" value="0" style="rounded=0;whiteSpace=wrap;html=1;" vertex="1" parent="1">
          <mxGeometry x="1122" y="599" width="30" height="30" as="geometry" />
        </mxCell>
        <mxCell id="jZMz4Pu9Ux6BbXjy2L9d-196" value="0" style="rounded=0;whiteSpace=wrap;html=1;" vertex="1" parent="1">
          <mxGeometry x="1162" y="599" width="30" height="30" as="geometry" />
        </mxCell>
        <mxCell id="jZMz4Pu9Ux6BbXjy2L9d-197" value="1" style="rounded=0;whiteSpace=wrap;html=1;" vertex="1" parent="1">
          <mxGeometry x="1202" y="599" width="30" height="30" as="geometry" />
        </mxCell>
        <mxCell id="jZMz4Pu9Ux6BbXjy2L9d-198" value="0" style="rounded=0;whiteSpace=wrap;html=1;" vertex="1" parent="1">
          <mxGeometry x="1242" y="599" width="30" height="30" as="geometry" />
        </mxCell>
        <mxCell id="jZMz4Pu9Ux6BbXjy2L9d-199" value="0" style="rounded=0;whiteSpace=wrap;html=1;" vertex="1" parent="1">
          <mxGeometry x="1282" y="599" width="30" height="30" as="geometry" />
        </mxCell>
        <mxCell id="jZMz4Pu9Ux6BbXjy2L9d-200" value="4" style="text;html=1;strokeColor=none;fillColor=none;align=center;verticalAlign=middle;whiteSpace=wrap;rounded=0;" vertex="1" parent="1">
          <mxGeometry x="1338" y="599" width="60" height="30" as="geometry" />
        </mxCell>
      </root>
    </mxGraphModel>
  </diagram>
  <diagram id="V88t65fXLzD227lFbbOh" name="第 3 页">
    <mxGraphModel dx="634" dy="404" grid="0" gridSize="10" guides="1" tooltips="1" connect="1" arrows="1" fold="1" page="0" pageScale="1" pageWidth="827" pageHeight="1169" math="0" shadow="0">
      <root>
        <mxCell id="0" />
        <mxCell id="1" parent="0" />
        <mxCell id="NZGw8dc0WaKAC6k658Xy-25" value="0" style="rounded=0;whiteSpace=wrap;html=1;" vertex="1" parent="1">
          <mxGeometry x="1002" y="463" width="30" height="30" as="geometry" />
        </mxCell>
        <mxCell id="NZGw8dc0WaKAC6k658Xy-26" value="0" style="rounded=0;whiteSpace=wrap;html=1;" vertex="1" parent="1">
          <mxGeometry x="1042" y="463" width="30" height="30" as="geometry" />
        </mxCell>
        <mxCell id="NZGw8dc0WaKAC6k658Xy-27" value="0" style="rounded=0;whiteSpace=wrap;html=1;" vertex="1" parent="1">
          <mxGeometry x="1082" y="463" width="30" height="30" as="geometry" />
        </mxCell>
        <mxCell id="NZGw8dc0WaKAC6k658Xy-28" value="0" style="rounded=0;whiteSpace=wrap;html=1;" vertex="1" parent="1">
          <mxGeometry x="1122" y="463" width="30" height="30" as="geometry" />
        </mxCell>
        <mxCell id="NZGw8dc0WaKAC6k658Xy-29" value="0" style="rounded=0;whiteSpace=wrap;html=1;" vertex="1" parent="1">
          <mxGeometry x="1162" y="463" width="30" height="30" as="geometry" />
        </mxCell>
        <mxCell id="NZGw8dc0WaKAC6k658Xy-30" value="1" style="rounded=0;whiteSpace=wrap;html=1;" vertex="1" parent="1">
          <mxGeometry x="1202" y="463" width="30" height="30" as="geometry" />
        </mxCell>
        <mxCell id="NZGw8dc0WaKAC6k658Xy-31" value="0" style="rounded=0;whiteSpace=wrap;html=1;" vertex="1" parent="1">
          <mxGeometry x="1242" y="463" width="30" height="30" as="geometry" />
        </mxCell>
        <mxCell id="NZGw8dc0WaKAC6k658Xy-32" value="1" style="rounded=0;whiteSpace=wrap;html=1;" vertex="1" parent="1">
          <mxGeometry x="1282" y="463" width="30" height="30" as="geometry" />
        </mxCell>
        <mxCell id="NZGw8dc0WaKAC6k658Xy-57" value="0" style="rounded=0;whiteSpace=wrap;html=1;" vertex="1" parent="1">
          <mxGeometry x="1002" y="525" width="30" height="30" as="geometry" />
        </mxCell>
        <mxCell id="NZGw8dc0WaKAC6k658Xy-58" value="0" style="rounded=0;whiteSpace=wrap;html=1;" vertex="1" parent="1">
          <mxGeometry x="1042" y="525" width="30" height="30" as="geometry" />
        </mxCell>
        <mxCell id="NZGw8dc0WaKAC6k658Xy-59" value="0" style="rounded=0;whiteSpace=wrap;html=1;" vertex="1" parent="1">
          <mxGeometry x="1082" y="525" width="30" height="30" as="geometry" />
        </mxCell>
        <mxCell id="NZGw8dc0WaKAC6k658Xy-60" value="0" style="rounded=0;whiteSpace=wrap;html=1;" vertex="1" parent="1">
          <mxGeometry x="1122" y="525" width="30" height="30" as="geometry" />
        </mxCell>
        <mxCell id="NZGw8dc0WaKAC6k658Xy-61" value="0" style="rounded=0;whiteSpace=wrap;html=1;" vertex="1" parent="1">
          <mxGeometry x="1162" y="525" width="30" height="30" as="geometry" />
        </mxCell>
        <mxCell id="NZGw8dc0WaKAC6k658Xy-62" value="1" style="rounded=0;whiteSpace=wrap;html=1;" vertex="1" parent="1">
          <mxGeometry x="1202" y="525" width="30" height="30" as="geometry" />
        </mxCell>
        <mxCell id="NZGw8dc0WaKAC6k658Xy-63" value="1" style="rounded=0;whiteSpace=wrap;html=1;" vertex="1" parent="1">
          <mxGeometry x="1242" y="525" width="30" height="30" as="geometry" />
        </mxCell>
        <mxCell id="NZGw8dc0WaKAC6k658Xy-64" value="0" style="rounded=0;whiteSpace=wrap;html=1;" vertex="1" parent="1">
          <mxGeometry x="1282" y="525" width="30" height="30" as="geometry" />
        </mxCell>
        <mxCell id="NZGw8dc0WaKAC6k658Xy-65" value="5" style="text;html=1;strokeColor=none;fillColor=none;align=center;verticalAlign=middle;whiteSpace=wrap;rounded=0;" vertex="1" parent="1">
          <mxGeometry x="1335" y="463" width="60" height="30" as="geometry" />
        </mxCell>
        <mxCell id="NZGw8dc0WaKAC6k658Xy-66" value="6" style="text;html=1;strokeColor=none;fillColor=none;align=center;verticalAlign=middle;whiteSpace=wrap;rounded=0;" vertex="1" parent="1">
          <mxGeometry x="1335" y="525" width="60" height="30" as="geometry" />
        </mxCell>
        <mxCell id="NZGw8dc0WaKAC6k658Xy-67" value="" style="endArrow=none;html=1;rounded=0;" edge="1" parent="1">
          <mxGeometry width="50" height="50" relative="1" as="geometry">
            <mxPoint x="989" y="575" as="sourcePoint" />
            <mxPoint x="1348" y="575" as="targetPoint" />
          </mxGeometry>
        </mxCell>
        <mxCell id="NZGw8dc0WaKAC6k658Xy-92" value="0" style="rounded=0;whiteSpace=wrap;html=1;" vertex="1" parent="1">
          <mxGeometry x="1002" y="599" width="30" height="30" as="geometry" />
        </mxCell>
        <mxCell id="NZGw8dc0WaKAC6k658Xy-93" value="0" style="rounded=0;whiteSpace=wrap;html=1;" vertex="1" parent="1">
          <mxGeometry x="1042" y="599" width="30" height="30" as="geometry" />
        </mxCell>
        <mxCell id="NZGw8dc0WaKAC6k658Xy-94" value="0" style="rounded=0;whiteSpace=wrap;html=1;" vertex="1" parent="1">
          <mxGeometry x="1082" y="599" width="30" height="30" as="geometry" />
        </mxCell>
        <mxCell id="NZGw8dc0WaKAC6k658Xy-95" value="0" style="rounded=0;whiteSpace=wrap;html=1;" vertex="1" parent="1">
          <mxGeometry x="1122" y="599" width="30" height="30" as="geometry" />
        </mxCell>
        <mxCell id="NZGw8dc0WaKAC6k658Xy-96" value="0" style="rounded=0;whiteSpace=wrap;html=1;" vertex="1" parent="1">
          <mxGeometry x="1162" y="599" width="30" height="30" as="geometry" />
        </mxCell>
        <mxCell id="NZGw8dc0WaKAC6k658Xy-97" value="1" style="rounded=0;whiteSpace=wrap;html=1;" vertex="1" parent="1">
          <mxGeometry x="1202" y="599" width="30" height="30" as="geometry" />
        </mxCell>
        <mxCell id="NZGw8dc0WaKAC6k658Xy-98" value="1" style="rounded=0;whiteSpace=wrap;html=1;" vertex="1" parent="1">
          <mxGeometry x="1242" y="599" width="30" height="30" as="geometry" />
        </mxCell>
        <mxCell id="NZGw8dc0WaKAC6k658Xy-99" value="1" style="rounded=0;whiteSpace=wrap;html=1;" vertex="1" parent="1">
          <mxGeometry x="1282" y="599" width="30" height="30" as="geometry" />
        </mxCell>
        <mxCell id="NZGw8dc0WaKAC6k658Xy-100" value="7" style="text;html=1;strokeColor=none;fillColor=none;align=center;verticalAlign=middle;whiteSpace=wrap;rounded=0;" vertex="1" parent="1">
          <mxGeometry x="1338" y="599" width="60" height="30" as="geometry" />
        </mxCell>
      </root>
    </mxGraphModel>
  </diagram>
  <diagram id="wV6ULPRQfMiRfbleFap2" name="第 4 页">
    <mxGraphModel dx="634" dy="348" grid="0" gridSize="10" guides="1" tooltips="1" connect="1" arrows="1" fold="1" page="0" pageScale="1" pageWidth="827" pageHeight="1169" math="0" shadow="0">
      <root>
        <mxCell id="0" />
        <mxCell id="1" parent="0" />
        <mxCell id="bKiVLL3CVZ2jcupkp6Ve-1" value="0" style="rounded=0;whiteSpace=wrap;html=1;" vertex="1" parent="1">
          <mxGeometry x="1002" y="463" width="30" height="30" as="geometry" />
        </mxCell>
        <mxCell id="bKiVLL3CVZ2jcupkp6Ve-2" value="0" style="rounded=0;whiteSpace=wrap;html=1;" vertex="1" parent="1">
          <mxGeometry x="1042" y="463" width="30" height="30" as="geometry" />
        </mxCell>
        <mxCell id="bKiVLL3CVZ2jcupkp6Ve-3" value="0" style="rounded=0;whiteSpace=wrap;html=1;" vertex="1" parent="1">
          <mxGeometry x="1082" y="463" width="30" height="30" as="geometry" />
        </mxCell>
        <mxCell id="bKiVLL3CVZ2jcupkp6Ve-4" value="0" style="rounded=0;whiteSpace=wrap;html=1;" vertex="1" parent="1">
          <mxGeometry x="1122" y="463" width="30" height="30" as="geometry" />
        </mxCell>
        <mxCell id="bKiVLL3CVZ2jcupkp6Ve-5" value="0" style="rounded=0;whiteSpace=wrap;html=1;" vertex="1" parent="1">
          <mxGeometry x="1162" y="463" width="30" height="30" as="geometry" />
        </mxCell>
        <mxCell id="bKiVLL3CVZ2jcupkp6Ve-6" value="1" style="rounded=0;whiteSpace=wrap;html=1;" vertex="1" parent="1">
          <mxGeometry x="1202" y="463" width="30" height="30" as="geometry" />
        </mxCell>
        <mxCell id="bKiVLL3CVZ2jcupkp6Ve-7" value="1" style="rounded=0;whiteSpace=wrap;html=1;" vertex="1" parent="1">
          <mxGeometry x="1242" y="463" width="30" height="30" as="geometry" />
        </mxCell>
        <mxCell id="bKiVLL3CVZ2jcupkp6Ve-8" value="0" style="rounded=0;whiteSpace=wrap;html=1;" vertex="1" parent="1">
          <mxGeometry x="1282" y="463" width="30" height="30" as="geometry" />
        </mxCell>
        <mxCell id="bKiVLL3CVZ2jcupkp6Ve-17" value="6" style="text;html=1;strokeColor=none;fillColor=none;align=center;verticalAlign=middle;whiteSpace=wrap;rounded=0;" vertex="1" parent="1">
          <mxGeometry x="1335" y="463" width="60" height="30" as="geometry" />
        </mxCell>
        <mxCell id="bKiVLL3CVZ2jcupkp6Ve-19" value="" style="endArrow=none;html=1;rounded=0;" edge="1" parent="1">
          <mxGeometry width="50" height="50" relative="1" as="geometry">
            <mxPoint x="989" y="512" as="sourcePoint" />
            <mxPoint x="1348" y="512" as="targetPoint" />
          </mxGeometry>
        </mxCell>
        <mxCell id="bKiVLL3CVZ2jcupkp6Ve-37" value="0" style="rounded=0;whiteSpace=wrap;html=1;" vertex="1" parent="1">
          <mxGeometry x="1002" y="554" width="30" height="30" as="geometry" />
        </mxCell>
        <mxCell id="bKiVLL3CVZ2jcupkp6Ve-38" value="0" style="rounded=0;whiteSpace=wrap;html=1;" vertex="1" parent="1">
          <mxGeometry x="1042" y="554" width="30" height="30" as="geometry" />
        </mxCell>
        <mxCell id="bKiVLL3CVZ2jcupkp6Ve-39" value="0" style="rounded=0;whiteSpace=wrap;html=1;" vertex="1" parent="1">
          <mxGeometry x="1082" y="554" width="30" height="30" as="geometry" />
        </mxCell>
        <mxCell id="bKiVLL3CVZ2jcupkp6Ve-40" value="0" style="rounded=0;whiteSpace=wrap;html=1;" vertex="1" parent="1">
          <mxGeometry x="1122" y="554" width="30" height="30" as="geometry" />
        </mxCell>
        <mxCell id="bKiVLL3CVZ2jcupkp6Ve-41" value="0" style="rounded=0;whiteSpace=wrap;html=1;" vertex="1" parent="1">
          <mxGeometry x="1162" y="554" width="30" height="30" as="geometry" />
        </mxCell>
        <mxCell id="bKiVLL3CVZ2jcupkp6Ve-42" value="1" style="rounded=0;whiteSpace=wrap;html=1;" vertex="1" parent="1">
          <mxGeometry x="1202" y="554" width="30" height="30" as="geometry" />
        </mxCell>
        <mxCell id="bKiVLL3CVZ2jcupkp6Ve-43" value="1" style="rounded=0;whiteSpace=wrap;html=1;" vertex="1" parent="1">
          <mxGeometry x="1242" y="554" width="30" height="30" as="geometry" />
        </mxCell>
        <mxCell id="bKiVLL3CVZ2jcupkp6Ve-44" value="0" style="rounded=0;whiteSpace=wrap;html=1;" vertex="1" parent="1">
          <mxGeometry x="1282" y="554" width="30" height="30" as="geometry" />
        </mxCell>
        <mxCell id="bKiVLL3CVZ2jcupkp6Ve-45" value="0" style="rounded=0;whiteSpace=wrap;html=1;" vertex="1" parent="1">
          <mxGeometry x="1322" y="554" width="30" height="30" as="geometry" />
        </mxCell>
        <mxCell id="bKiVLL3CVZ2jcupkp6Ve-46" value="0" style="rounded=0;whiteSpace=wrap;html=1;" vertex="1" parent="1">
          <mxGeometry x="1362" y="554" width="30" height="30" as="geometry" />
        </mxCell>
        <mxCell id="bKiVLL3CVZ2jcupkp6Ve-47" value="24" style="text;html=1;strokeColor=none;fillColor=none;align=center;verticalAlign=middle;whiteSpace=wrap;rounded=0;" vertex="1" parent="1">
          <mxGeometry x="1423" y="556" width="60" height="30" as="geometry" />
        </mxCell>
      </root>
    </mxGraphModel>
  </diagram>
  <diagram id="WZYRFGLb6s_IF2U-BcMJ" name="第 5 页">
    <mxGraphModel dx="874" dy="404" grid="0" gridSize="10" guides="1" tooltips="1" connect="1" arrows="1" fold="1" page="0" pageScale="1" pageWidth="827" pageHeight="1169" math="0" shadow="0">
      <root>
        <mxCell id="0" />
        <mxCell id="1" parent="0" />
        <mxCell id="RPpGFj05poYEN3rVlXsQ-1" value="0" style="rounded=0;whiteSpace=wrap;html=1;" vertex="1" parent="1">
          <mxGeometry x="1002" y="463" width="30" height="30" as="geometry" />
        </mxCell>
        <mxCell id="RPpGFj05poYEN3rVlXsQ-2" value="0" style="rounded=0;whiteSpace=wrap;html=1;" vertex="1" parent="1">
          <mxGeometry x="1042" y="463" width="30" height="30" as="geometry" />
        </mxCell>
        <mxCell id="RPpGFj05poYEN3rVlXsQ-3" value="0" style="rounded=0;whiteSpace=wrap;html=1;" vertex="1" parent="1">
          <mxGeometry x="1082" y="463" width="30" height="30" as="geometry" />
        </mxCell>
        <mxCell id="RPpGFj05poYEN3rVlXsQ-4" value="0" style="rounded=0;whiteSpace=wrap;html=1;" vertex="1" parent="1">
          <mxGeometry x="1122" y="463" width="30" height="30" as="geometry" />
        </mxCell>
        <mxCell id="RPpGFj05poYEN3rVlXsQ-5" value="1" style="rounded=0;whiteSpace=wrap;html=1;" vertex="1" parent="1">
          <mxGeometry x="1162" y="463" width="30" height="30" as="geometry" />
        </mxCell>
        <mxCell id="RPpGFj05poYEN3rVlXsQ-6" value="1" style="rounded=0;whiteSpace=wrap;html=1;" vertex="1" parent="1">
          <mxGeometry x="1202" y="463" width="30" height="30" as="geometry" />
        </mxCell>
        <mxCell id="RPpGFj05poYEN3rVlXsQ-7" value="0" style="rounded=0;whiteSpace=wrap;html=1;" vertex="1" parent="1">
          <mxGeometry x="1242" y="463" width="30" height="30" as="geometry" />
        </mxCell>
        <mxCell id="RPpGFj05poYEN3rVlXsQ-8" value="0" style="rounded=0;whiteSpace=wrap;html=1;" vertex="1" parent="1">
          <mxGeometry x="1282" y="463" width="30" height="30" as="geometry" />
        </mxCell>
        <mxCell id="RPpGFj05poYEN3rVlXsQ-9" value="12" style="text;html=1;strokeColor=none;fillColor=none;align=center;verticalAlign=middle;whiteSpace=wrap;rounded=0;" vertex="1" parent="1">
          <mxGeometry x="1335" y="463" width="60" height="30" as="geometry" />
        </mxCell>
        <mxCell id="RPpGFj05poYEN3rVlXsQ-10" value="" style="endArrow=none;html=1;rounded=0;" edge="1" parent="1">
          <mxGeometry width="50" height="50" relative="1" as="geometry">
            <mxPoint x="989" y="512" as="sourcePoint" />
            <mxPoint x="1348" y="512" as="targetPoint" />
          </mxGeometry>
        </mxCell>
        <mxCell id="RPpGFj05poYEN3rVlXsQ-11" value="0" style="rounded=0;whiteSpace=wrap;html=1;" vertex="1" parent="1">
          <mxGeometry x="1002" y="538" width="30" height="30" as="geometry" />
        </mxCell>
        <mxCell id="RPpGFj05poYEN3rVlXsQ-12" value="0" style="rounded=0;whiteSpace=wrap;html=1;" vertex="1" parent="1">
          <mxGeometry x="1042" y="538" width="30" height="30" as="geometry" />
        </mxCell>
        <mxCell id="RPpGFj05poYEN3rVlXsQ-13" value="0" style="rounded=0;whiteSpace=wrap;html=1;" vertex="1" parent="1">
          <mxGeometry x="1082" y="538" width="30" height="30" as="geometry" />
        </mxCell>
        <mxCell id="RPpGFj05poYEN3rVlXsQ-14" value="0" style="rounded=0;whiteSpace=wrap;html=1;" vertex="1" parent="1">
          <mxGeometry x="1122" y="538" width="30" height="30" as="geometry" />
        </mxCell>
        <mxCell id="RPpGFj05poYEN3rVlXsQ-15" value="1" style="rounded=0;whiteSpace=wrap;html=1;" vertex="1" parent="1">
          <mxGeometry x="1162" y="538" width="30" height="30" as="geometry" />
        </mxCell>
        <mxCell id="RPpGFj05poYEN3rVlXsQ-16" value="1" style="rounded=0;whiteSpace=wrap;html=1;" vertex="1" parent="1">
          <mxGeometry x="1202" y="538" width="30" height="30" as="geometry" />
        </mxCell>
        <mxCell id="RPpGFj05poYEN3rVlXsQ-17" value="0" style="rounded=0;whiteSpace=wrap;html=1;" vertex="1" parent="1">
          <mxGeometry x="1242" y="538" width="30" height="30" as="geometry" />
        </mxCell>
        <mxCell id="RPpGFj05poYEN3rVlXsQ-18" value="0" style="rounded=0;whiteSpace=wrap;html=1;" vertex="1" parent="1">
          <mxGeometry x="1282" y="538" width="30" height="30" as="geometry" />
        </mxCell>
        <mxCell id="RPpGFj05poYEN3rVlXsQ-22" value="" style="endArrow=none;html=1;rounded=0;" edge="1" parent="1">
          <mxGeometry width="50" height="50" relative="1" as="geometry">
            <mxPoint x="1234" y="578" as="sourcePoint" />
            <mxPoint x="1280" y="531" as="targetPoint" />
          </mxGeometry>
        </mxCell>
        <mxCell id="RPpGFj05poYEN3rVlXsQ-23" value="" style="endArrow=none;html=1;rounded=0;" edge="1" parent="1">
          <mxGeometry width="50" height="50" relative="1" as="geometry">
            <mxPoint x="1272" y="578.5" as="sourcePoint" />
            <mxPoint x="1318" y="531.5" as="targetPoint" />
          </mxGeometry>
        </mxCell>
        <mxCell id="RPpGFj05poYEN3rVlXsQ-24" value="3" style="text;html=1;strokeColor=none;fillColor=none;align=center;verticalAlign=middle;whiteSpace=wrap;rounded=0;" vertex="1" parent="1">
          <mxGeometry x="1335" y="536" width="60" height="30" as="geometry" />
        </mxCell>
      </root>
    </mxGraphModel>
  </diagram>
  <diagram id="PWTMytMlRZtgMbOW8Zzp" name="第 6 页">
    <mxGraphModel dx="1434" dy="1148" grid="0" gridSize="10" guides="1" tooltips="1" connect="1" arrows="1" fold="1" page="0" pageScale="1" pageWidth="827" pageHeight="1169" math="0" shadow="0">
      <root>
        <mxCell id="0" />
        <mxCell id="1" parent="0" />
        <mxCell id="-A8UvCquBxw6i5nWjwMH-1" value="" style="rounded=0;whiteSpace=wrap;html=1;" vertex="1" parent="1">
          <mxGeometry x="95" y="-81" width="77" height="433" as="geometry" />
        </mxCell>
        <mxCell id="-A8UvCquBxw6i5nWjwMH-2" value="" style="rounded=0;whiteSpace=wrap;html=1;" vertex="1" parent="1">
          <mxGeometry x="194" y="-81" width="431" height="433" as="geometry" />
        </mxCell>
        <mxCell id="-A8UvCquBxw6i5nWjwMH-3" value="stack（栈）" style="text;html=1;strokeColor=none;fillColor=none;align=center;verticalAlign=middle;whiteSpace=wrap;rounded=0;" vertex="1" parent="1">
          <mxGeometry x="94" y="-123" width="79" height="30" as="geometry" />
        </mxCell>
        <mxCell id="-A8UvCquBxw6i5nWjwMH-4" value="heap（堆）" style="text;html=1;strokeColor=none;fillColor=none;align=center;verticalAlign=middle;whiteSpace=wrap;rounded=0;" vertex="1" parent="1">
          <mxGeometry x="231" y="-123" width="88" height="30" as="geometry" />
        </mxCell>
        <mxCell id="-A8UvCquBxw6i5nWjwMH-5" value="int[] scores&amp;nbsp;" style="rounded=1;whiteSpace=wrap;html=1;" vertex="1" parent="1">
          <mxGeometry x="90" y="321" width="83" height="31" as="geometry" />
        </mxCell>
        <mxCell id="-A8UvCquBxw6i5nWjwMH-7" value="0" style="rounded=1;whiteSpace=wrap;html=1;" vertex="1" parent="1">
          <mxGeometry x="256" y="-25" width="77" height="31" as="geometry" />
        </mxCell>
        <mxCell id="-A8UvCquBxw6i5nWjwMH-8" value="0" style="rounded=1;whiteSpace=wrap;html=1;" vertex="1" parent="1">
          <mxGeometry x="256" y="6" width="77" height="31" as="geometry" />
        </mxCell>
        <mxCell id="-A8UvCquBxw6i5nWjwMH-9" value="0" style="rounded=1;whiteSpace=wrap;html=1;" vertex="1" parent="1">
          <mxGeometry x="256" y="37" width="77" height="31" as="geometry" />
        </mxCell>
        <mxCell id="-A8UvCquBxw6i5nWjwMH-18" value="0" style="rounded=1;whiteSpace=wrap;html=1;" vertex="1" parent="1">
          <mxGeometry x="258" y="68" width="77" height="31" as="geometry" />
        </mxCell>
        <mxCell id="-A8UvCquBxw6i5nWjwMH-19" value="0" style="rounded=1;whiteSpace=wrap;html=1;" vertex="1" parent="1">
          <mxGeometry x="258" y="99" width="77" height="31" as="geometry" />
        </mxCell>
        <mxCell id="-A8UvCquBxw6i5nWjwMH-20" value="0xAA01" style="text;html=1;strokeColor=none;fillColor=none;align=center;verticalAlign=middle;whiteSpace=wrap;rounded=0;" vertex="1" parent="1">
          <mxGeometry x="333.5" y="-25" width="60" height="30" as="geometry" />
        </mxCell>
        <mxCell id="-A8UvCquBxw6i5nWjwMH-21" value="0xAA02" style="text;html=1;strokeColor=none;fillColor=none;align=center;verticalAlign=middle;whiteSpace=wrap;rounded=0;" vertex="1" parent="1">
          <mxGeometry x="333.5" y="6" width="60" height="30" as="geometry" />
        </mxCell>
        <mxCell id="-A8UvCquBxw6i5nWjwMH-22" value="0xAA03" style="text;html=1;strokeColor=none;fillColor=none;align=center;verticalAlign=middle;whiteSpace=wrap;rounded=0;" vertex="1" parent="1">
          <mxGeometry x="333.5" y="37" width="60" height="30" as="geometry" />
        </mxCell>
        <mxCell id="-A8UvCquBxw6i5nWjwMH-23" value="0xAA04" style="text;html=1;strokeColor=none;fillColor=none;align=center;verticalAlign=middle;whiteSpace=wrap;rounded=0;" vertex="1" parent="1">
          <mxGeometry x="335.5" y="67" width="60" height="30" as="geometry" />
        </mxCell>
        <mxCell id="-A8UvCquBxw6i5nWjwMH-24" value="0xAA05" style="text;html=1;strokeColor=none;fillColor=none;align=center;verticalAlign=middle;whiteSpace=wrap;rounded=0;" vertex="1" parent="1">
          <mxGeometry x="335.5" y="100" width="60" height="30" as="geometry" />
        </mxCell>
        <mxCell id="-A8UvCquBxw6i5nWjwMH-35" value="scores[0]" style="text;html=1;strokeColor=none;fillColor=none;align=center;verticalAlign=middle;whiteSpace=wrap;rounded=0;" vertex="1" parent="1">
          <mxGeometry x="196" y="-23" width="60" height="30" as="geometry" />
        </mxCell>
        <mxCell id="-A8UvCquBxw6i5nWjwMH-36" value="scores[1]" style="text;html=1;strokeColor=none;fillColor=none;align=center;verticalAlign=middle;whiteSpace=wrap;rounded=0;" vertex="1" parent="1">
          <mxGeometry x="196" y="8" width="60" height="30" as="geometry" />
        </mxCell>
        <mxCell id="-A8UvCquBxw6i5nWjwMH-37" value="scores[2]" style="text;html=1;strokeColor=none;fillColor=none;align=center;verticalAlign=middle;whiteSpace=wrap;rounded=0;" vertex="1" parent="1">
          <mxGeometry x="196" y="39" width="60" height="30" as="geometry" />
        </mxCell>
        <mxCell id="-A8UvCquBxw6i5nWjwMH-38" value="scores[3]" style="text;html=1;strokeColor=none;fillColor=none;align=center;verticalAlign=middle;whiteSpace=wrap;rounded=0;" vertex="1" parent="1">
          <mxGeometry x="198" y="69" width="60" height="30" as="geometry" />
        </mxCell>
        <mxCell id="-A8UvCquBxw6i5nWjwMH-39" value="scores[4]" style="text;html=1;strokeColor=none;fillColor=none;align=center;verticalAlign=middle;whiteSpace=wrap;rounded=0;" vertex="1" parent="1">
          <mxGeometry x="198" y="102" width="60" height="30" as="geometry" />
        </mxCell>
        <mxCell id="-A8UvCquBxw6i5nWjwMH-41" value="" style="curved=1;endArrow=classic;html=1;rounded=0;exitX=1;exitY=0.5;exitDx=0;exitDy=0;entryX=1;entryY=0.5;entryDx=0;entryDy=0;" edge="1" parent="1" source="-A8UvCquBxw6i5nWjwMH-5" target="-A8UvCquBxw6i5nWjwMH-20">
          <mxGeometry width="50" height="50" relative="1" as="geometry">
            <mxPoint x="55" y="168" as="sourcePoint" />
            <mxPoint x="105" y="118" as="targetPoint" />
            <Array as="points">
              <mxPoint x="105" y="168" />
              <mxPoint x="355" y="154" />
              <mxPoint x="446" y="149" />
              <mxPoint x="433" y="91" />
              <mxPoint x="422" y="80" />
            </Array>
          </mxGeometry>
        </mxCell>
      </root>
    </mxGraphModel>
  </diagram>
  <diagram id="y-SEW67sAZN-Tvp7V68r" name="第 7 页">
    <mxGraphModel dx="1221" dy="636" grid="1" gridSize="10" guides="1" tooltips="1" connect="1" arrows="1" fold="1" page="1" pageScale="1" pageWidth="827" pageHeight="1169" math="0" shadow="0">
      <root>
        <mxCell id="0" />
        <mxCell id="1" parent="0" />
        <mxCell id="DfMTATXZ0DCHzwKhSZhq-4" style="edgeStyle=orthogonalEdgeStyle;rounded=0;orthogonalLoop=1;jettySize=auto;html=1;entryX=0;entryY=0.5;entryDx=0;entryDy=0;" edge="1" parent="1" source="DfMTATXZ0DCHzwKhSZhq-1" target="DfMTATXZ0DCHzwKhSZhq-3">
          <mxGeometry relative="1" as="geometry" />
        </mxCell>
        <mxCell id="DfMTATXZ0DCHzwKhSZhq-1" value="New&lt;br&gt;新建状态" style="rounded=1;whiteSpace=wrap;html=1;fillColor=#1ba1e2;strokeColor=#006EAF;fontColor=#ffffff;" vertex="1" parent="1">
          <mxGeometry x="20" y="350" width="90" height="50" as="geometry" />
        </mxCell>
        <mxCell id="DfMTATXZ0DCHzwKhSZhq-6" style="edgeStyle=orthogonalEdgeStyle;rounded=0;orthogonalLoop=1;jettySize=auto;html=1;entryX=0;entryY=0.5;entryDx=0;entryDy=0;" edge="1" parent="1" source="DfMTATXZ0DCHzwKhSZhq-3" target="DfMTATXZ0DCHzwKhSZhq-5">
          <mxGeometry relative="1" as="geometry" />
        </mxCell>
        <mxCell id="DfMTATXZ0DCHzwKhSZhq-12" style="edgeStyle=orthogonalEdgeStyle;rounded=0;orthogonalLoop=1;jettySize=auto;html=1;" edge="1" parent="1" target="DfMTATXZ0DCHzwKhSZhq-8">
          <mxGeometry relative="1" as="geometry">
            <mxPoint x="259" y="387" as="sourcePoint" />
            <mxPoint x="310" y="492" as="targetPoint" />
            <Array as="points">
              <mxPoint x="259" y="390" />
              <mxPoint x="130" y="390" />
              <mxPoint x="130" y="492" />
            </Array>
          </mxGeometry>
        </mxCell>
        <mxCell id="DfMTATXZ0DCHzwKhSZhq-20" style="edgeStyle=orthogonalEdgeStyle;rounded=0;orthogonalLoop=1;jettySize=auto;html=1;" edge="1" parent="1">
          <mxGeometry relative="1" as="geometry">
            <mxPoint x="259" y="382" as="sourcePoint" />
            <mxPoint x="310" y="730" as="targetPoint" />
            <Array as="points">
              <mxPoint x="259" y="390" />
              <mxPoint x="130" y="390" />
              <mxPoint x="130" y="730" />
              <mxPoint x="310" y="730" />
            </Array>
          </mxGeometry>
        </mxCell>
        <mxCell id="DfMTATXZ0DCHzwKhSZhq-25" value="wait(timeout)" style="edgeLabel;html=1;align=center;verticalAlign=middle;resizable=0;points=[];" vertex="1" connectable="0" parent="DfMTATXZ0DCHzwKhSZhq-20">
          <mxGeometry x="0.7136" y="1" relative="1" as="geometry">
            <mxPoint as="offset" />
          </mxGeometry>
        </mxCell>
        <mxCell id="DfMTATXZ0DCHzwKhSZhq-3" value="Runnable&lt;br style=&quot;border-color: var(--border-color);&quot;&gt;可运行状态" style="rounded=1;whiteSpace=wrap;html=1;fillColor=#60a917;strokeColor=#2D7600;fontColor=#ffffff;" vertex="1" parent="1">
          <mxGeometry x="259" y="345" width="310" height="60" as="geometry" />
        </mxCell>
        <mxCell id="DfMTATXZ0DCHzwKhSZhq-5" value="Terminated&lt;br&gt;终止状态" style="rounded=1;whiteSpace=wrap;html=1;fillColor=#012060;strokeColor=#001DBC;fontColor=#ffffff;" vertex="1" parent="1">
          <mxGeometry x="680" y="350" width="90" height="50" as="geometry" />
        </mxCell>
        <mxCell id="DfMTATXZ0DCHzwKhSZhq-7" value="run( )结束/&lt;br&gt;异常未捕获" style="text;html=1;strokeColor=none;fillColor=none;align=center;verticalAlign=middle;whiteSpace=wrap;rounded=0;" vertex="1" parent="1">
          <mxGeometry x="569" y="345" width="80" height="30" as="geometry" />
        </mxCell>
        <mxCell id="DfMTATXZ0DCHzwKhSZhq-29" style="edgeStyle=orthogonalEdgeStyle;rounded=0;orthogonalLoop=1;jettySize=auto;html=1;entryX=1;entryY=0.75;entryDx=0;entryDy=0;" edge="1" parent="1" source="DfMTATXZ0DCHzwKhSZhq-8" target="DfMTATXZ0DCHzwKhSZhq-3">
          <mxGeometry relative="1" as="geometry">
            <Array as="points">
              <mxPoint x="670" y="490" />
              <mxPoint x="670" y="390" />
            </Array>
          </mxGeometry>
        </mxCell>
        <mxCell id="DfMTATXZ0DCHzwKhSZhq-31" value="获得monitor锁" style="edgeLabel;html=1;align=center;verticalAlign=middle;resizable=0;points=[];" vertex="1" connectable="0" parent="DfMTATXZ0DCHzwKhSZhq-29">
          <mxGeometry x="-0.61" y="1" relative="1" as="geometry">
            <mxPoint as="offset" />
          </mxGeometry>
        </mxCell>
        <mxCell id="DfMTATXZ0DCHzwKhSZhq-8" value="Blocked&lt;br&gt;阻塞状态" style="rounded=1;whiteSpace=wrap;html=1;fillColor=#a20025;strokeColor=#6F0000;fontColor=#ffffff;" vertex="1" parent="1">
          <mxGeometry x="310" y="460" width="200" height="60" as="geometry" />
        </mxCell>
        <mxCell id="DfMTATXZ0DCHzwKhSZhq-32" style="edgeStyle=orthogonalEdgeStyle;rounded=0;orthogonalLoop=1;jettySize=auto;html=1;entryX=1;entryY=0.75;entryDx=0;entryDy=0;" edge="1" parent="1" source="DfMTATXZ0DCHzwKhSZhq-9" target="DfMTATXZ0DCHzwKhSZhq-8">
          <mxGeometry relative="1" as="geometry">
            <Array as="points">
              <mxPoint x="570" y="570" />
              <mxPoint x="570" y="505" />
            </Array>
          </mxGeometry>
        </mxCell>
        <mxCell id="DfMTATXZ0DCHzwKhSZhq-34" style="edgeStyle=orthogonalEdgeStyle;rounded=0;orthogonalLoop=1;jettySize=auto;html=1;entryX=1;entryY=0.75;entryDx=0;entryDy=0;" edge="1" parent="1" source="DfMTATXZ0DCHzwKhSZhq-9" target="DfMTATXZ0DCHzwKhSZhq-3">
          <mxGeometry relative="1" as="geometry">
            <mxPoint x="610" y="400" as="targetPoint" />
            <Array as="points">
              <mxPoint x="670" y="590" />
              <mxPoint x="670" y="390" />
            </Array>
          </mxGeometry>
        </mxCell>
        <mxCell id="DfMTATXZ0DCHzwKhSZhq-35" value="LockSupport.&lt;br&gt;unpark( )" style="edgeLabel;html=1;align=center;verticalAlign=middle;resizable=0;points=[];" vertex="1" connectable="0" parent="DfMTATXZ0DCHzwKhSZhq-34">
          <mxGeometry x="-0.5392" y="3" relative="1" as="geometry">
            <mxPoint x="2" y="-2" as="offset" />
          </mxGeometry>
        </mxCell>
        <mxCell id="DfMTATXZ0DCHzwKhSZhq-36" style="edgeStyle=orthogonalEdgeStyle;rounded=0;orthogonalLoop=1;jettySize=auto;html=1;entryX=1;entryY=0.75;entryDx=0;entryDy=0;" edge="1" parent="1" source="DfMTATXZ0DCHzwKhSZhq-9" target="DfMTATXZ0DCHzwKhSZhq-3">
          <mxGeometry relative="1" as="geometry">
            <Array as="points">
              <mxPoint x="670" y="620" />
              <mxPoint x="670" y="390" />
            </Array>
          </mxGeometry>
        </mxCell>
        <mxCell id="DfMTATXZ0DCHzwKhSZhq-37" value="join( )程序执行结束/&lt;br&gt;被中断" style="edgeLabel;html=1;align=center;verticalAlign=middle;resizable=0;points=[];" vertex="1" connectable="0" parent="DfMTATXZ0DCHzwKhSZhq-36">
          <mxGeometry x="-0.7295" relative="1" as="geometry">
            <mxPoint as="offset" />
          </mxGeometry>
        </mxCell>
        <mxCell id="DfMTATXZ0DCHzwKhSZhq-9" value="Waiting&lt;br&gt;等待状态" style="rounded=1;whiteSpace=wrap;html=1;fillColor=#f0a30a;fontColor=#000000;strokeColor=#BD7000;" vertex="1" parent="1">
          <mxGeometry x="310" y="560" width="200" height="75" as="geometry" />
        </mxCell>
        <mxCell id="DfMTATXZ0DCHzwKhSZhq-38" style="edgeStyle=orthogonalEdgeStyle;rounded=0;orthogonalLoop=1;jettySize=auto;html=1;entryX=1;entryY=0.75;entryDx=0;entryDy=0;fillColor=#6a00ff;strokeColor=#3700CC;" edge="1" parent="1" source="DfMTATXZ0DCHzwKhSZhq-10" target="DfMTATXZ0DCHzwKhSZhq-8">
          <mxGeometry relative="1" as="geometry">
            <Array as="points">
              <mxPoint x="630" y="720" />
              <mxPoint x="630" y="505" />
            </Array>
          </mxGeometry>
        </mxCell>
        <mxCell id="DfMTATXZ0DCHzwKhSZhq-39" value="o.notify( )/ o.notifyAll( )" style="edgeLabel;html=1;align=center;verticalAlign=middle;resizable=0;points=[];fontColor=#9980f9;" vertex="1" connectable="0" parent="DfMTATXZ0DCHzwKhSZhq-38">
          <mxGeometry x="-0.8076" relative="1" as="geometry">
            <mxPoint x="46" y="-30" as="offset" />
          </mxGeometry>
        </mxCell>
        <mxCell id="DfMTATXZ0DCHzwKhSZhq-41" style="edgeStyle=orthogonalEdgeStyle;rounded=0;orthogonalLoop=1;jettySize=auto;html=1;entryX=1;entryY=0.75;entryDx=0;entryDy=0;" edge="1" parent="1" source="DfMTATXZ0DCHzwKhSZhq-10" target="DfMTATXZ0DCHzwKhSZhq-3">
          <mxGeometry relative="1" as="geometry">
            <Array as="points">
              <mxPoint x="670" y="750" />
              <mxPoint x="670" y="390" />
            </Array>
          </mxGeometry>
        </mxCell>
        <mxCell id="DfMTATXZ0DCHzwKhSZhq-42" value="Text" style="edgeLabel;html=1;align=center;verticalAlign=middle;resizable=0;points=[];" vertex="1" connectable="0" parent="DfMTATXZ0DCHzwKhSZhq-41">
          <mxGeometry x="-0.7679" y="3" relative="1" as="geometry">
            <mxPoint as="offset" />
          </mxGeometry>
        </mxCell>
        <mxCell id="DfMTATXZ0DCHzwKhSZhq-45" value="join( )程序执行结束/&lt;br style=&quot;border-color: var(--border-color);&quot;&gt;被中断" style="edgeLabel;html=1;align=center;verticalAlign=middle;resizable=0;points=[];" vertex="1" connectable="0" parent="DfMTATXZ0DCHzwKhSZhq-41">
          <mxGeometry x="-0.7694" y="5" relative="1" as="geometry">
            <mxPoint as="offset" />
          </mxGeometry>
        </mxCell>
        <mxCell id="DfMTATXZ0DCHzwKhSZhq-46" style="edgeStyle=orthogonalEdgeStyle;rounded=0;orthogonalLoop=1;jettySize=auto;html=1;entryX=1;entryY=0.75;entryDx=0;entryDy=0;" edge="1" parent="1" source="DfMTATXZ0DCHzwKhSZhq-10" target="DfMTATXZ0DCHzwKhSZhq-3">
          <mxGeometry relative="1" as="geometry">
            <Array as="points">
              <mxPoint x="670" y="790" />
              <mxPoint x="670" y="390" />
            </Array>
          </mxGeometry>
        </mxCell>
        <mxCell id="DfMTATXZ0DCHzwKhSZhq-47" value="LockSupport.&lt;br style=&quot;border-color: var(--border-color);&quot;&gt;unpark( )" style="edgeLabel;html=1;align=center;verticalAlign=middle;resizable=0;points=[];" vertex="1" connectable="0" parent="DfMTATXZ0DCHzwKhSZhq-46">
          <mxGeometry x="-0.7842" y="4" relative="1" as="geometry">
            <mxPoint as="offset" />
          </mxGeometry>
        </mxCell>
        <mxCell id="DfMTATXZ0DCHzwKhSZhq-10" value="Timed Waiting&lt;br&gt;计时等待状态" style="rounded=1;whiteSpace=wrap;html=1;fillColor=#fa6800;fontColor=#000000;strokeColor=#C73500;" vertex="1" parent="1">
          <mxGeometry x="310" y="690" width="200" height="130" as="geometry" />
        </mxCell>
        <mxCell id="DfMTATXZ0DCHzwKhSZhq-11" value="" style="endArrow=classic;html=1;rounded=0;edgeStyle=orthogonalEdgeStyle;" edge="1" parent="1">
          <mxGeometry width="50" height="50" relative="1" as="geometry">
            <mxPoint x="259" y="390" as="sourcePoint" />
            <mxPoint x="310" y="710" as="targetPoint" />
            <Array as="points">
              <mxPoint x="130" y="390" />
              <mxPoint x="130" y="710" />
              <mxPoint x="310" y="710" />
            </Array>
          </mxGeometry>
        </mxCell>
        <mxCell id="DfMTATXZ0DCHzwKhSZhq-24" value="sleep(time)" style="edgeLabel;html=1;align=center;verticalAlign=middle;resizable=0;points=[];" vertex="1" connectable="0" parent="DfMTATXZ0DCHzwKhSZhq-11">
          <mxGeometry x="0.692" y="1" relative="1" as="geometry">
            <mxPoint as="offset" />
          </mxGeometry>
        </mxCell>
        <mxCell id="DfMTATXZ0DCHzwKhSZhq-13" value="进入&lt;br&gt;synchronized&lt;br&gt;代码时没拿到锁" style="text;html=1;align=center;verticalAlign=middle;resizable=0;points=[];autosize=1;strokeColor=none;fillColor=none;" vertex="1" parent="1">
          <mxGeometry x="200" y="440" width="110" height="60" as="geometry" />
        </mxCell>
        <mxCell id="DfMTATXZ0DCHzwKhSZhq-14" value="" style="endArrow=classic;html=1;rounded=0;entryX=0;entryY=0.5;entryDx=0;entryDy=0;exitX=0;exitY=0.75;exitDx=0;exitDy=0;edgeStyle=orthogonalEdgeStyle;" edge="1" parent="1" source="DfMTATXZ0DCHzwKhSZhq-3">
          <mxGeometry width="50" height="50" relative="1" as="geometry">
            <mxPoint x="259" y="350" as="sourcePoint" />
            <mxPoint x="310" y="570" as="targetPoint" />
            <Array as="points">
              <mxPoint x="130" y="390" />
              <mxPoint x="130" y="570" />
            </Array>
          </mxGeometry>
        </mxCell>
        <mxCell id="DfMTATXZ0DCHzwKhSZhq-17" value="wait( )" style="edgeLabel;html=1;align=center;verticalAlign=middle;resizable=0;points=[];" vertex="1" connectable="0" parent="DfMTATXZ0DCHzwKhSZhq-14">
          <mxGeometry x="0.6989" y="-1" relative="1" as="geometry">
            <mxPoint as="offset" />
          </mxGeometry>
        </mxCell>
        <mxCell id="DfMTATXZ0DCHzwKhSZhq-15" value="" style="endArrow=classic;html=1;rounded=0;entryX=0;entryY=0.5;entryDx=0;entryDy=0;edgeStyle=orthogonalEdgeStyle;" edge="1" parent="1">
          <mxGeometry width="50" height="50" relative="1" as="geometry">
            <mxPoint x="259" y="390" as="sourcePoint" />
            <mxPoint x="310" y="620" as="targetPoint" />
            <Array as="points">
              <mxPoint x="259" y="390" />
              <mxPoint x="130" y="390" />
              <mxPoint x="130" y="620" />
            </Array>
          </mxGeometry>
        </mxCell>
        <mxCell id="DfMTATXZ0DCHzwKhSZhq-19" value="LockSupport.park( )" style="edgeLabel;html=1;align=center;verticalAlign=middle;resizable=0;points=[];" vertex="1" connectable="0" parent="DfMTATXZ0DCHzwKhSZhq-15">
          <mxGeometry x="0.6518" y="-2" relative="1" as="geometry">
            <mxPoint as="offset" />
          </mxGeometry>
        </mxCell>
        <mxCell id="DfMTATXZ0DCHzwKhSZhq-16" value="" style="endArrow=classic;html=1;rounded=0;exitX=0;exitY=0.75;exitDx=0;exitDy=0;edgeStyle=orthogonalEdgeStyle;" edge="1" parent="1" target="DfMTATXZ0DCHzwKhSZhq-9">
          <mxGeometry width="50" height="50" relative="1" as="geometry">
            <mxPoint x="259" y="370" as="sourcePoint" />
            <mxPoint x="310" y="598" as="targetPoint" />
            <Array as="points">
              <mxPoint x="259" y="390" />
              <mxPoint x="130" y="390" />
              <mxPoint x="130" y="595" />
            </Array>
          </mxGeometry>
        </mxCell>
        <mxCell id="DfMTATXZ0DCHzwKhSZhq-18" value="join( )" style="edgeLabel;html=1;align=center;verticalAlign=middle;resizable=0;points=[];" vertex="1" connectable="0" parent="DfMTATXZ0DCHzwKhSZhq-16">
          <mxGeometry x="0.8446" y="2" relative="1" as="geometry">
            <mxPoint x="-50" y="5" as="offset" />
          </mxGeometry>
        </mxCell>
        <mxCell id="DfMTATXZ0DCHzwKhSZhq-21" style="edgeStyle=orthogonalEdgeStyle;rounded=0;orthogonalLoop=1;jettySize=auto;html=1;" edge="1" parent="1">
          <mxGeometry relative="1" as="geometry">
            <mxPoint x="260" y="390" as="sourcePoint" />
            <mxPoint x="310" y="780" as="targetPoint" />
            <Array as="points">
              <mxPoint x="130" y="390" />
              <mxPoint x="130" y="780" />
              <mxPoint x="310" y="780" />
            </Array>
          </mxGeometry>
        </mxCell>
        <mxCell id="DfMTATXZ0DCHzwKhSZhq-27" value="LockSupport.&lt;br&gt;parkUnitl(time)" style="edgeLabel;html=1;align=center;verticalAlign=middle;resizable=0;points=[];" vertex="1" connectable="0" parent="DfMTATXZ0DCHzwKhSZhq-21">
          <mxGeometry x="0.7412" relative="1" as="geometry">
            <mxPoint as="offset" />
          </mxGeometry>
        </mxCell>
        <mxCell id="DfMTATXZ0DCHzwKhSZhq-22" style="edgeStyle=orthogonalEdgeStyle;rounded=0;orthogonalLoop=1;jettySize=auto;html=1;" edge="1" parent="1">
          <mxGeometry relative="1" as="geometry">
            <mxPoint x="259" y="390" as="sourcePoint" />
            <mxPoint x="310" y="750" as="targetPoint" />
            <Array as="points">
              <mxPoint x="130" y="390" />
              <mxPoint x="130" y="750" />
              <mxPoint x="310" y="750" />
            </Array>
          </mxGeometry>
        </mxCell>
        <mxCell id="DfMTATXZ0DCHzwKhSZhq-26" value="LockSupport.&lt;br&gt;parkNanos(time)" style="edgeLabel;html=1;align=center;verticalAlign=middle;resizable=0;points=[];" vertex="1" connectable="0" parent="DfMTATXZ0DCHzwKhSZhq-22">
          <mxGeometry x="0.6939" y="-2" relative="1" as="geometry">
            <mxPoint x="12" y="-2" as="offset" />
          </mxGeometry>
        </mxCell>
        <mxCell id="DfMTATXZ0DCHzwKhSZhq-23" style="edgeStyle=orthogonalEdgeStyle;rounded=0;orthogonalLoop=1;jettySize=auto;html=1;" edge="1" parent="1">
          <mxGeometry relative="1" as="geometry">
            <mxPoint x="259" y="390" as="sourcePoint" />
            <mxPoint x="310" y="810" as="targetPoint" />
            <Array as="points">
              <mxPoint x="130" y="390" />
              <mxPoint x="130" y="810" />
              <mxPoint x="310" y="810" />
            </Array>
          </mxGeometry>
        </mxCell>
        <mxCell id="DfMTATXZ0DCHzwKhSZhq-28" value="join(timeout)" style="edgeLabel;html=1;align=center;verticalAlign=middle;resizable=0;points=[];" vertex="1" connectable="0" parent="DfMTATXZ0DCHzwKhSZhq-23">
          <mxGeometry x="0.7267" y="-2" relative="1" as="geometry">
            <mxPoint as="offset" />
          </mxGeometry>
        </mxCell>
        <mxCell id="DfMTATXZ0DCHzwKhSZhq-33" value="o.notify( )/ o.notifyAll( )" style="text;html=1;align=center;verticalAlign=middle;resizable=0;points=[];autosize=1;strokeColor=none;fillColor=none;" vertex="1" parent="1">
          <mxGeometry x="480" y="530" width="140" height="30" as="geometry" />
        </mxCell>
      </root>
    </mxGraphModel>
  </diagram>
</mxfile>
